<svg width="520" height="220" viewBox="0 0 520 220" fill="none" xmlns="http://www.w3.org/2000/svg">
  <filter id="shadow" x="-30%" y="-50%" width="160%" height="200%">
    <feDropShadow dx="0" dy="18" stdDeviation="18" flood-color="#000000" flood-opacity=".55"/>
  </filter>
  <g filter="url(#shadow)">
    <rect x="20" y="24" width="480" height="172" rx="52" fill="url(#body)" stroke="rgba(255,255,255,.55)" stroke-width="3"/>
    <path d="M98 38 H330 C416 38 474 73 486 109 C474 149 416 182 330 182 H98 C50 176 30 145 30 110 C30 75 50 44 98 38Z" fill="url(#gloss)" opacity=".62"/>
    <rect x="216" y="48" width="124" height="124" rx="26" fill="#0B1426" opacity=".95"/>
    <rect x="230" y="62" width="45" height="96" rx="16" fill="#16334E"/>
    <rect x="286" y="62" width="42" height="96" rx="16" fill="#16334E"/>
    <path d="M76 70 H122" stroke="rgba(255,255,255,.22)" stroke-width="5" stroke-linecap="round"/>
    <path d="M76 150 H122" stroke="rgba(255,255,255,.22)" stroke-width="5" stroke-linecap="round"/>
    <path d="M414 70 H458" stroke="rgba(255,255,255,.22)" stroke-width="5" stroke-linecap="round"/>
    <path d="M414 150 H458" stroke="rgba(255,255,255,.22)" stroke-width="5" stroke-linecap="round"/>
    <rect x="495" y="70" width="8" height="32" rx="4" fill="#77C8FF"/>
    <rect x="495" y="120" width="8" height="32" rx="4" fill="#77C8FF"/>
    <rect x="17" y="68" width="8" height="35" rx="4" fill="#FF5EC8"/>
    <rect x="17" y="118" width="8" height="35" rx="4" fill="#FF5EC8"/>
    <rect x="92" y="8" width="28" height="36" rx="12" fill="#060915"/>
    <rect x="92" y="176" width="28" height="36" rx="12" fill="#060915"/>
    <rect x="402" y="8" width="28" height="36" rx="12" fill="#060915"/>
    <rect x="402" y="176" width="28" height="36" rx="12" fill="#060915"/>
    <circle cx="482" cy="110" r="6" fill="#fff"/>
  </g>
  <defs>
    <linearGradient id="body" x1="20" y1="110" x2="500" y2="110" gradientUnits="userSpaceOnUse">
      <stop stop-color="#5A22D9"/>
      <stop offset=".5" stop-color="#8A5CFF"/>
      <stop offset="1" stop-color="#B150FF"/>
    </linearGradient>
    <linearGradient id="gloss" x1="30" y1="38" x2="486" y2="182" gradientUnits="userSpaceOnUse">
      <stop stop-color="white" stop-opacity=".12"/>
      <stop offset=".5" stop-color="white" stop-opacity=".02"/>
      <stop offset="1" stop-color="white" stop-opacity=".10"/>
    </linearGradient>
  </defs>
</svg>