<svg width="520" height="220" viewBox="0 0 520 220" fill="none" xmlns="http://www.w3.org/2000/svg">
  <filter id="shadow" x="-30%" y="-50%" width="160%" height="200%">
    <feDropShadow dx="0" dy="18" stdDeviation="18" flood-color="#000000" flood-opacity=".45"/>
  </filter>
  <g filter="url(#shadow)">
    <rect x="22" y="26" width="476" height="168" rx="48" fill="#D7DCE4" stroke="rgba(255,255,255,.35)" stroke-width="3"/>
    <path d="M100 42 H334 C414 42 468 75 484 110 C468 145 414 178 334 178 H100 C55 174 34 146 34 110 C34 74 55 46 100 42Z" fill="#EDF1F5"/>
    <rect x="215" y="50" width="125" height="120" rx="26" fill="#182337"/>
    <rect x="230" y="66" width="42" height="88" rx="14" fill="#263853"/>
    <rect x="288" y="66" width="38" height="88" rx="14" fill="#263853"/>
    <rect x="493" y="70" width="8" height="32" rx="4" fill="#7DBDFF"/>
    <rect x="493" y="118" width="8" height="32" rx="4" fill="#7DBDFF"/>
    <rect x="17" y="68" width="8" height="35" rx="4" fill="#C22C4D"/>
    <rect x="17" y="118" width="8" height="35" rx="4" fill="#C22C4D"/>
  </g>
</svg>